<mxfile host="app.diagrams.net" modified="2023-03-15T08:54:50.494Z" agent="5.0 (Windows NT 10.0; Win64; x64) AppleWebKit/537.36 (KHTML, like Gecko) Chrome/111.0.0.0 Safari/537.36" etag="k1Wo1XfgUhIfqUeSlb0J" version="21.0.6" type="github">
  <diagram name="Page-1" id="e7e014a7-5840-1c2e-5031-d8a46d1fe8dd">
    <mxGraphModel dx="1300" dy="680" grid="1" gridSize="10" guides="1" tooltips="1" connect="1" arrows="1" fold="1" page="1" pageScale="1" pageWidth="1169" pageHeight="826" background="none" math="0" shadow="0">
      <root>
        <mxCell id="0" />
        <mxCell id="1" parent="0" />
        <mxCell id="2" value="Участник/Избиратель" style="swimlane;whiteSpace=wrap" parent="1" vertex="1">
          <mxGeometry x="164.5" y="128" width="215.5" height="570" as="geometry" />
        </mxCell>
        <mxCell id="12" value="" style="edgeStyle=elbowEdgeStyle;elbow=horizontal;strokeColor=#FF0000;endArrow=open;endFill=1;rounded=0" parent="2" source="10" edge="1">
          <mxGeometry width="100" height="100" relative="1" as="geometry">
            <mxPoint x="160" y="290" as="sourcePoint" />
            <mxPoint x="60" y="134.9999999999999" as="targetPoint" />
            <Array as="points">
              <mxPoint x="30" y="250" />
            </Array>
          </mxGeometry>
        </mxCell>
        <mxCell id="gl5ol4Vv82NOas20KsnX-41" value="Избиратель" style="shape=umlActor;verticalLabelPosition=bottom;verticalAlign=top;html=1;outlineConnect=0;sketch=1;hachureGap=4;jiggle=2;curveFitting=1;fontFamily=Architects Daughter;fontSource=https%3A%2F%2Ffonts.googleapis.com%2Fcss%3Ffamily%3DArchitects%2BDaughter;fontSize=20;" vertex="1" parent="2">
          <mxGeometry x="105.5" y="52" width="30" height="60" as="geometry" />
        </mxCell>
        <mxCell id="3" value="Администратор" style="swimlane;whiteSpace=wrap" parent="1" vertex="1">
          <mxGeometry x="380" y="128" width="345" height="570" as="geometry" />
        </mxCell>
        <mxCell id="gl5ol4Vv82NOas20KsnX-111" style="edgeStyle=orthogonalEdgeStyle;rounded=0;sketch=1;hachureGap=4;jiggle=2;curveFitting=1;orthogonalLoop=1;jettySize=auto;html=1;exitX=0;exitY=0.3333333333333333;exitDx=0;exitDy=0;exitPerimeter=0;entryX=0.5;entryY=0;entryDx=0;entryDy=0;fontFamily=Architects Daughter;fontSource=https%3A%2F%2Ffonts.googleapis.com%2Fcss%3Ffamily%3DArchitects%2BDaughter;fontSize=16;" edge="1" parent="3" source="gl5ol4Vv82NOas20KsnX-42" target="gl5ol4Vv82NOas20KsnX-48">
          <mxGeometry relative="1" as="geometry" />
        </mxCell>
        <mxCell id="gl5ol4Vv82NOas20KsnX-42" value="Администратор&lt;br&gt;" style="shape=umlActor;verticalLabelPosition=bottom;verticalAlign=top;html=1;outlineConnect=0;sketch=1;hachureGap=4;jiggle=2;curveFitting=1;fontFamily=Architects Daughter;fontSource=https%3A%2F%2Ffonts.googleapis.com%2Fcss%3Ffamily%3DArchitects%2BDaughter;fontSize=20;" vertex="1" parent="3">
          <mxGeometry x="157.5" y="166" width="30" height="60" as="geometry" />
        </mxCell>
        <mxCell id="gl5ol4Vv82NOas20KsnX-47" value="Регистрация в системе. Переход участника в избирателя" style="ellipse;whiteSpace=wrap;html=1;sketch=1;hachureGap=4;jiggle=2;curveFitting=1;fontFamily=Architects Daughter;fontSource=https%3A%2F%2Ffonts.googleapis.com%2Fcss%3Ffamily%3DArchitects%2BDaughter;fontSize=20;" vertex="1" parent="3">
          <mxGeometry x="85.25" y="22" width="174.5" height="135" as="geometry" />
        </mxCell>
        <mxCell id="gl5ol4Vv82NOas20KsnX-48" value="Заполнение списка участников" style="ellipse;whiteSpace=wrap;html=1;sketch=1;hachureGap=4;jiggle=2;curveFitting=1;fontFamily=Architects Daughter;fontSource=https%3A%2F%2Ffonts.googleapis.com%2Fcss%3Ffamily%3DArchitects%2BDaughter;fontSize=20;" vertex="1" parent="3">
          <mxGeometry x="0.25" y="302" width="157.25" height="98" as="geometry" />
        </mxCell>
        <mxCell id="4" value="База данных/Счётчик" style="swimlane;whiteSpace=wrap" parent="1" vertex="1">
          <mxGeometry x="724.5" y="128" width="395.5" height="570" as="geometry" />
        </mxCell>
        <mxCell id="gl5ol4Vv82NOas20KsnX-78" style="edgeStyle=orthogonalEdgeStyle;rounded=0;sketch=1;hachureGap=4;jiggle=2;curveFitting=1;orthogonalLoop=1;jettySize=auto;html=1;exitX=1;exitY=0.5;exitDx=0;exitDy=0;entryX=0;entryY=0.5;entryDx=0;entryDy=0;fontFamily=Architects Daughter;fontSource=https%3A%2F%2Ffonts.googleapis.com%2Fcss%3Ffamily%3DArchitects%2BDaughter;fontSize=16;" edge="1" parent="4" source="gl5ol4Vv82NOas20KsnX-50" target="gl5ol4Vv82NOas20KsnX-54">
          <mxGeometry relative="1" as="geometry" />
        </mxCell>
        <mxCell id="gl5ol4Vv82NOas20KsnX-50" value="Вход в систему" style="ellipse;whiteSpace=wrap;html=1;sketch=1;hachureGap=4;jiggle=2;curveFitting=1;fontFamily=Architects Daughter;fontSource=https%3A%2F%2Ffonts.googleapis.com%2Fcss%3Ffamily%3DArchitects%2BDaughter;fontSize=20;" vertex="1" parent="4">
          <mxGeometry x="11" y="32" width="120" height="80" as="geometry" />
        </mxCell>
        <mxCell id="gl5ol4Vv82NOas20KsnX-79" style="edgeStyle=orthogonalEdgeStyle;rounded=0;sketch=1;hachureGap=4;jiggle=2;curveFitting=1;orthogonalLoop=1;jettySize=auto;html=1;exitX=0.5;exitY=1;exitDx=0;exitDy=0;entryX=0.5;entryY=0;entryDx=0;entryDy=0;fontFamily=Architects Daughter;fontSource=https%3A%2F%2Ffonts.googleapis.com%2Fcss%3Ffamily%3DArchitects%2BDaughter;fontSize=16;" edge="1" parent="4" source="gl5ol4Vv82NOas20KsnX-54" target="gl5ol4Vv82NOas20KsnX-58">
          <mxGeometry relative="1" as="geometry" />
        </mxCell>
        <mxCell id="gl5ol4Vv82NOas20KsnX-54" value="Голосование" style="ellipse;whiteSpace=wrap;html=1;sketch=1;hachureGap=4;jiggle=2;curveFitting=1;fontFamily=Architects Daughter;fontSource=https%3A%2F%2Ffonts.googleapis.com%2Fcss%3Ffamily%3DArchitects%2BDaughter;fontSize=20;" vertex="1" parent="4">
          <mxGeometry x="180.5" y="32" width="120" height="80" as="geometry" />
        </mxCell>
        <mxCell id="gl5ol4Vv82NOas20KsnX-96" style="edgeStyle=orthogonalEdgeStyle;rounded=0;sketch=1;hachureGap=4;jiggle=2;curveFitting=1;orthogonalLoop=1;jettySize=auto;html=1;exitX=0;exitY=1;exitDx=0;exitDy=0;exitPerimeter=0;fontFamily=Architects Daughter;fontSource=https%3A%2F%2Ffonts.googleapis.com%2Fcss%3Ffamily%3DArchitects%2BDaughter;fontSize=16;" edge="1" parent="4" source="gl5ol4Vv82NOas20KsnX-56" target="gl5ol4Vv82NOas20KsnX-95">
          <mxGeometry relative="1" as="geometry" />
        </mxCell>
        <mxCell id="gl5ol4Vv82NOas20KsnX-56" value="База данных" style="shape=umlActor;verticalLabelPosition=bottom;verticalAlign=top;html=1;outlineConnect=0;sketch=1;hachureGap=4;jiggle=2;curveFitting=1;fontFamily=Architects Daughter;fontSource=https%3A%2F%2Ffonts.googleapis.com%2Fcss%3Ffamily%3DArchitects%2BDaughter;fontSize=20;" vertex="1" parent="4">
          <mxGeometry x="325.5" y="322" width="30" height="60" as="geometry" />
        </mxCell>
        <mxCell id="gl5ol4Vv82NOas20KsnX-82" style="edgeStyle=orthogonalEdgeStyle;rounded=0;sketch=1;hachureGap=4;jiggle=2;curveFitting=1;orthogonalLoop=1;jettySize=auto;html=1;exitX=1;exitY=0.5;exitDx=0;exitDy=0;fontFamily=Architects Daughter;fontSource=https%3A%2F%2Ffonts.googleapis.com%2Fcss%3Ffamily%3DArchitects%2BDaughter;fontSize=16;" edge="1" parent="4" source="gl5ol4Vv82NOas20KsnX-58" target="gl5ol4Vv82NOas20KsnX-56">
          <mxGeometry relative="1" as="geometry" />
        </mxCell>
        <mxCell id="gl5ol4Vv82NOas20KsnX-58" value="Проверка на наличие дубликатов" style="ellipse;whiteSpace=wrap;html=1;sketch=1;hachureGap=4;jiggle=2;curveFitting=1;fontFamily=Architects Daughter;fontSource=https%3A%2F%2Ffonts.googleapis.com%2Fcss%3Ffamily%3DArchitects%2BDaughter;fontSize=20;" vertex="1" parent="4">
          <mxGeometry x="160.5" y="152" width="160" height="100" as="geometry" />
        </mxCell>
        <mxCell id="gl5ol4Vv82NOas20KsnX-93" style="edgeStyle=orthogonalEdgeStyle;rounded=0;sketch=1;hachureGap=4;jiggle=2;curveFitting=1;orthogonalLoop=1;jettySize=auto;html=1;exitX=1;exitY=0.3333333333333333;exitDx=0;exitDy=0;exitPerimeter=0;entryX=0.008;entryY=0.674;entryDx=0;entryDy=0;entryPerimeter=0;fontFamily=Architects Daughter;fontSource=https%3A%2F%2Ffonts.googleapis.com%2Fcss%3Ffamily%3DArchitects%2BDaughter;fontSize=16;" edge="1" parent="4" source="gl5ol4Vv82NOas20KsnX-69" target="gl5ol4Vv82NOas20KsnX-92">
          <mxGeometry relative="1" as="geometry" />
        </mxCell>
        <mxCell id="gl5ol4Vv82NOas20KsnX-69" value="Счетчик&lt;br&gt;" style="shape=umlActor;verticalLabelPosition=bottom;verticalAlign=top;html=1;outlineConnect=0;sketch=1;hachureGap=4;jiggle=2;curveFitting=1;fontFamily=Architects Daughter;fontSource=https%3A%2F%2Ffonts.googleapis.com%2Fcss%3Ffamily%3DArchitects%2BDaughter;fontSize=20;" vertex="1" parent="4">
          <mxGeometry x="70" y="322" width="30" height="60" as="geometry" />
        </mxCell>
        <mxCell id="gl5ol4Vv82NOas20KsnX-88" style="edgeStyle=orthogonalEdgeStyle;rounded=0;sketch=1;hachureGap=4;jiggle=2;curveFitting=1;orthogonalLoop=1;jettySize=auto;html=1;exitX=0.5;exitY=1;exitDx=0;exitDy=0;entryX=0.5;entryY=0;entryDx=0;entryDy=0;entryPerimeter=0;fontFamily=Architects Daughter;fontSource=https%3A%2F%2Ffonts.googleapis.com%2Fcss%3Ffamily%3DArchitects%2BDaughter;fontSize=16;" edge="1" parent="4" source="gl5ol4Vv82NOas20KsnX-71" target="gl5ol4Vv82NOas20KsnX-69">
          <mxGeometry relative="1" as="geometry" />
        </mxCell>
        <mxCell id="gl5ol4Vv82NOas20KsnX-71" value="Начать подсчёт" style="ellipse;whiteSpace=wrap;html=1;sketch=1;hachureGap=4;jiggle=2;curveFitting=1;fontFamily=Architects Daughter;fontSource=https%3A%2F%2Ffonts.googleapis.com%2Fcss%3Ffamily%3DArchitects%2BDaughter;fontSize=20;" vertex="1" parent="4">
          <mxGeometry x="45.5" y="226" width="79" height="59" as="geometry" />
        </mxCell>
        <mxCell id="gl5ol4Vv82NOas20KsnX-94" style="edgeStyle=orthogonalEdgeStyle;rounded=0;sketch=1;hachureGap=4;jiggle=2;curveFitting=1;orthogonalLoop=1;jettySize=auto;html=1;exitX=1;exitY=0.5;exitDx=0;exitDy=0;entryX=0;entryY=0.3333333333333333;entryDx=0;entryDy=0;entryPerimeter=0;fontFamily=Architects Daughter;fontSource=https%3A%2F%2Ffonts.googleapis.com%2Fcss%3Ffamily%3DArchitects%2BDaughter;fontSize=16;" edge="1" parent="4" source="gl5ol4Vv82NOas20KsnX-92" target="gl5ol4Vv82NOas20KsnX-56">
          <mxGeometry relative="1" as="geometry" />
        </mxCell>
        <mxCell id="gl5ol4Vv82NOas20KsnX-92" value="Подсчет голосов" style="ellipse;whiteSpace=wrap;html=1;sketch=1;hachureGap=4;jiggle=2;curveFitting=1;fontFamily=Architects Daughter;fontSource=https%3A%2F%2Ffonts.googleapis.com%2Fcss%3Ffamily%3DArchitects%2BDaughter;fontSize=20;" vertex="1" parent="4">
          <mxGeometry x="145.5" y="292" width="120" height="80" as="geometry" />
        </mxCell>
        <mxCell id="gl5ol4Vv82NOas20KsnX-95" value="Результаты выборов" style="ellipse;whiteSpace=wrap;html=1;sketch=1;hachureGap=4;jiggle=2;curveFitting=1;fontFamily=Architects Daughter;fontSource=https%3A%2F%2Ffonts.googleapis.com%2Fcss%3Ffamily%3DArchitects%2BDaughter;fontSize=20;" vertex="1" parent="4">
          <mxGeometry x="115.5" y="452" width="164.5" height="88" as="geometry" />
        </mxCell>
        <mxCell id="gl5ol4Vv82NOas20KsnX-86" style="edgeStyle=orthogonalEdgeStyle;rounded=0;sketch=1;hachureGap=4;jiggle=2;curveFitting=1;orthogonalLoop=1;jettySize=auto;html=1;exitX=1;exitY=0.3333333333333333;exitDx=0;exitDy=0;exitPerimeter=0;fontFamily=Architects Daughter;fontSource=https%3A%2F%2Ffonts.googleapis.com%2Fcss%3Ffamily%3DArchitects%2BDaughter;fontSize=16;entryX=0;entryY=0.5;entryDx=0;entryDy=0;" edge="1" parent="1" source="gl5ol4Vv82NOas20KsnX-42" target="gl5ol4Vv82NOas20KsnX-71">
          <mxGeometry relative="1" as="geometry">
            <mxPoint x="680.0000000000002" y="390" as="targetPoint" />
          </mxGeometry>
        </mxCell>
        <mxCell id="gl5ol4Vv82NOas20KsnX-98" style="edgeStyle=orthogonalEdgeStyle;rounded=0;sketch=1;hachureGap=4;jiggle=2;curveFitting=1;orthogonalLoop=1;jettySize=auto;html=1;exitX=0;exitY=0.5;exitDx=0;exitDy=0;fontFamily=Architects Daughter;fontSource=https%3A%2F%2Ffonts.googleapis.com%2Fcss%3Ffamily%3DArchitects%2BDaughter;fontSize=16;" edge="1" parent="1" source="gl5ol4Vv82NOas20KsnX-95" target="gl5ol4Vv82NOas20KsnX-42">
          <mxGeometry relative="1" as="geometry" />
        </mxCell>
        <mxCell id="gl5ol4Vv82NOas20KsnX-103" style="edgeStyle=orthogonalEdgeStyle;rounded=0;sketch=1;hachureGap=4;jiggle=2;curveFitting=1;orthogonalLoop=1;jettySize=auto;html=1;exitX=1;exitY=0.3333333333333333;exitDx=0;exitDy=0;exitPerimeter=0;entryX=0.021;entryY=0.347;entryDx=0;entryDy=0;entryPerimeter=0;fontFamily=Architects Daughter;fontSource=https%3A%2F%2Ffonts.googleapis.com%2Fcss%3Ffamily%3DArchitects%2BDaughter;fontSize=16;" edge="1" parent="1" source="gl5ol4Vv82NOas20KsnX-41" target="gl5ol4Vv82NOas20KsnX-47">
          <mxGeometry relative="1" as="geometry" />
        </mxCell>
        <mxCell id="gl5ol4Vv82NOas20KsnX-112" style="edgeStyle=orthogonalEdgeStyle;rounded=0;sketch=1;hachureGap=4;jiggle=2;curveFitting=1;orthogonalLoop=1;jettySize=auto;html=1;exitX=1;exitY=0.5;exitDx=0;exitDy=0;entryX=0.02;entryY=0.716;entryDx=0;entryDy=0;entryPerimeter=0;fontFamily=Architects Daughter;fontSource=https%3A%2F%2Ffonts.googleapis.com%2Fcss%3Ffamily%3DArchitects%2BDaughter;fontSize=16;" edge="1" parent="1" source="gl5ol4Vv82NOas20KsnX-47" target="gl5ol4Vv82NOas20KsnX-50">
          <mxGeometry relative="1" as="geometry" />
        </mxCell>
      </root>
    </mxGraphModel>
  </diagram>
</mxfile>
